<?xml version="1.0" standalone="no"?>
<svg width="2000" height="2500" version="1.1" xmlns="http://www.w3.org/2000/svg">

  <polygon points="50 160 55 180 70 180 60 190 65 205 50 195 35 205 40 190 30 180 45 180"
      stroke="transparent" fill="black" stroke-width="1"/>

  <!-- <polygon points="100,10 40,198 190,78 10,78 160,198"
  style="fill:lime;stroke:transparent;" /> -->

  <polygon points="50,4 20,99 95,39 5,39 80,99"
  style="fill:black;stroke:transparent;" />

  <path style="opacity:1;fill:red;fill-opacity:1;fill-rule:nonzero;stroke:none;stroke-width:0.73258585;stroke-linecap:square;stroke-linejoin:miter;stroke-miterlimit:4;stroke-dasharray:none;stroke-dashoffset:0;stroke-opacity:1" d="m 347.21447,152.15557 c -11.53877,94.18535 -15.35404,153.99237 -37.90039,192.59961 -36.85584,47.9866 -100.73942,52.5569 -218.099617,63.40039 115.457837,13.96998 177.883957,16.99762 214.847667,60.95703 27.61638,38.91551 32.28891,99.11321 41.15234,195.04297 15.05396,-124.41663 17.41252,-187.24556 71.96484,-222.99805 38.7879,-18.73484 96.66682,-22.82442 184.03516,-33.00195 C 494.88125,394.88352 432.02582,391.82942 394.60509,358.73565 362.96315,321.01375 359.58822,258.37717 347.21447,152.15557 Z"/>

<path style="opacity:1;fill:red;fill-opacity:1;fill-rule:nonzero;stroke:none;stroke-width:0.73258585;stroke-linecap:square;stroke-linejoin:miter;stroke-miterlimit:4;stroke-dasharray:none;stroke-dashoffset:0;stroke-opacity:1" d="m 34.721447,15.215557 c -1.153877,9.418535 -1.535404,15.399237 -3.790039,19.259961 -3.685584,4.79866 -10.073942,5.25569 -21.8099617,6.340039 11.5457837,1.396998 17.7883957,1.699762 21.4847667,6.095703 2.761638,3.891551 3.228891,9.911321 4.115234,19.504297 1.505396,-12.441663 1.741252,-18.724556 7.196484,-22.299805 3.87879,-1.873484 9.666682,-2.282442 18.403516,-3.300195 C 49.488125,39.488352 43.202582,39.182942 39.460509,35.873565 36.296315,32.101375 35.958822,25.837717 34.721447,15.215557 Z"/>

</svg>