<svg height='100px' width='100px'  fill="#FFFFFF" xmlns="http://www.w3.org/2000/svg" xmlns:xlink="http://www.w3.org/1999/xlink" viewBox="0 0 24 24" version="1.1" x="0px" y="0px"><title>icon/space-solid</title><desc>Created with Sketch.</desc><g stroke="none" stroke-width="1" fill="none" fill-rule="evenodd"><path d="M18.2451,7.0029 C18.0621,6.7739 17.8681,6.5529 17.6571,6.3419 C17.4431,6.1289 17.2201,5.9329 16.9901,5.7489 C18.4651,4.7049 19.4151,4.2469 19.9171,4.0869 C19.7361,4.6559 19.1831,5.6719 18.2451,7.0029 M4.0611,19.9419 C4.2231,19.4359 4.6851,18.4769 5.7461,16.9829 C5.9321,17.2149 6.1291,17.4409 6.3431,17.6549 C6.5571,17.8679 6.7801,18.0649 7.0101,18.2479 C5.6621,19.2009 4.6361,19.7599 4.0611,19.9419 M21.5191,2.4789 C20.8651,1.8239 19.4791,1.3669 15.1231,4.6369 C12.2111,3.4019 8.7171,3.9679 6.3431,6.3419 C3.9711,8.7139 3.4041,12.2049 4.6361,15.1149 C1.3391,19.4969 1.7951,20.8869 2.4531,21.5449 C2.7671,21.8599 3.1641,22.0199 3.6561,22.0199 C4.5771,22.0199 5.8371,21.4619 7.5401,20.3229 C7.9711,20.0349 8.4221,19.7099 8.8831,19.3629 C11.7941,20.5939 15.2841,20.0269 17.6571,17.6549 C20.0311,15.2809 20.5961,11.7879 19.3621,8.8759 C19.6991,8.4259 20.0161,7.9849 20.2981,7.5649 C22.0461,4.9509 22.4231,3.3819 21.5191,2.4789" fill="#FFFFFF"></path></g></svg>